<svg fill="none" height="24" viewBox="0 0 24 24" width="24" xmlns="http://www.w3.org/2000/svg"><g stroke="#141b34" stroke-linecap="round" stroke-linejoin="round" stroke-width="1.5"><path d="m12 22c-5.52289 0-10-4.4772-10-10 0-5.52285 4.47715-10 10-10 4.4776 0 8.2257 2.94289 9.5 7h-2.5"/><path d="m12 8v4l2 2"/><path d="m21.9551 13c.0297-.3291.0449-.6627.0449-1m-7 10c.3416-.1124.6753-.2436 1-.3922m4.7906-4.6078c.1929-.3716.3649-.7567.5144-1.1538m-3.1125 4.383c.3444-.2851.6706-.5934.9763-.9227"/></g></svg>