<svg fill="none" height="24" viewBox="0 0 24 24" width="24" xmlns="http://www.w3.org/2000/svg"><g stroke="#141b34" stroke-width="1.5"><path d="m2 6c0-.94281 0-1.41421.29289-1.70711.2929-.29289.7643-.29289 1.70711-.29289s1.41421 0 1.70711.29289c.29289.2929.29289.7643.29289 1.70711v2c0 .94281 0 1.41421-.29289 1.70711-.2929.29289-.7643.29289-1.70711.29289s-1.41421 0-1.70711-.29289c-.29289-.2929-.29289-.7643-.29289-1.70711z"/><path d="m6.5 16c0-.9428 0-1.4142.29289-1.7071.2929-.2929.7643-.2929 1.70711-.2929s1.41421 0 1.7071.2929c.2929.2929.2929.7643.2929 1.7071v2c0 .9428 0 1.4142-.2929 1.7071-.29289.2929-.76429.2929-1.7071.2929s-1.41421 0-1.70711-.2929c-.29289-.2929-.29289-.7643-.29289-1.7071z"/><path d="m13.5 6c0-.94281 0-1.41421.2929-1.70711.2929-.29289.7643-.29289 1.7071-.29289s1.4142 0 1.7071.29289c.2929.2929.2929.7643.2929 1.70711v2c0 .94281 0 1.41421-.2929 1.70711-.2929.29289-.7643.29289-1.7071.29289s-1.4142 0-1.7071-.29289c-.2929-.2929-.2929-.7643-.2929-1.70711z"/><path d="m13.5 16c0-.9428 0-1.4142.2929-1.7071s.7643-.2929 1.7071-.2929 1.4142 0 1.7071.2929.2929.7643.2929 1.7071v2c0 .9428 0 1.4142-.2929 1.7071s-.7643.2929-1.7071.2929-1.4142 0-1.7071-.2929-.2929-.7643-.2929-1.7071z"/><g stroke-linecap="round" stroke-linejoin="round"><path d="m9 5 1.5-1v6"/><path d="m2 15 1.5-1v6"/><path d="m20.5 5 1.5-1v6"/><path d="m20.5 15 1.5-1v6"/></g></g></svg>