<svg fill="none" height="24" viewBox="0 0 24 24" width="24" xmlns="http://www.w3.org/2000/svg"><g stroke="#141b34" stroke-width="1.5"><g stroke-linecap="round" stroke-linejoin="round"><path d="m4 15v4"/><path d="m12 9v10"/><path d="m22 22h-20"/><path d="m20 13v6"/></g><path d="m5.60009 8.79993c-.36488-.48574-.94579-.79993-1.60009-.79993-1.10457 0-2 .89543-2 2 0 1.1046.89543 2 2 2s2-.8954 2-2c0-.45027-.1488-.86579-.39991-1.20007zm0 0 4.79981-3.59986m0 0c.3649.48574.9458.79993 1.6001.79993.783 0 1.4609-.44994 1.7892-1.10538m-3.3893.30545c-.2511-.33428-.3999-.7498-.3999-1.20007 0-1.10457.8954-2 2-2s2 .89543 2 2c0 .32158-.0759.62543-.2108.89462m0 0 4.4216 2.21076m0 0c-.1349.26919-.2108.57304-.2108.89462 0 1.10457.8954 2 2 2s2-.89543 2-2-.8954-2-2-2c-.783 0-1.4609.44994-1.7892 1.10538z"/></g></svg>