<svg fill="none" height="24" viewBox="0 0 24 24" width="24" xmlns="http://www.w3.org/2000/svg"><g stroke="#141b34" stroke-linecap="round" stroke-width="1.5"><path d="m2.5 8.18677c.10406-2.09972.41537-3.40885 1.34664-4.34013.93128-.93127 2.24041-1.24258 4.34013-1.34664m13.31323 5.68677c-.1041-2.09972-.4154-3.40885-1.3466-4.34013-.9313-.93127-2.2405-1.24258-4.3402-1.34664m0 19c2.0997-.1041 3.4089-.4154 4.3402-1.3466.9312-.9313 1.2425-2.2405 1.3466-4.3402m-13.31324 5.6868c-2.09971-.1041-3.40884-.4154-4.34012-1.3466-.93127-.9313-1.24258-2.2405-1.34664-4.3402" stroke-linejoin="round"/><path d="m2.5 12h19"/><path d="m6 12c0-3.31371 2.68629-6 6-6 0 1.65685 1.3431 3 3 3 .6755 0 1.2989-.22328 1.8004-.60007.7532 1.0028 1.1996 2.24927 1.1996 3.60007m-.8027 3c-1.0374 1.7934-2.9765 3-5.1973 3-2.22085 0-4.15988-1.2066-5.19731-3" stroke-linejoin="round"/></g></svg>