<svg fill="none" height="24" viewBox="0 0 24 24" width="24" xmlns="http://www.w3.org/2000/svg"><g stroke="#141b34" stroke-width="1.5"><g stroke-linecap="round"><path d="m5 5.82759h2.7m3.3 0h-1.5m-1.8 0h1.8m-1.8 0v-.82759m1.8.82759c-.31649 1.13178-.97925 2.20164-1.73571 3.14187m-1.92858 2.03054c.61152-.5623 1.30217-1.25198 1.92858-2.03054m0 0c-.38572-.45222-.92572-1.18388-1.08-1.51491m1.08 1.51491 1.15714 1.20294" stroke-linejoin="round"/><path d="m13.5 19 .8333-2m4.1667 2-.8333-2m-3.3334 0 1.6667-4 1.6667 4m-3.3334 0h3.3334" stroke-linejoin="round"/><path d="m14 10v-2c0-2.82843 0-4.24264-.8787-5.12132s-2.2929-.87868-5.1213-.87868c-2.82843 0-4.24264 0-5.12132.87868s-.87868 2.29289-.87868 5.12132c0 2.8284 0 4.2426.87868 5.1213s2.29289.8787 5.12132.8787h2"/></g><path d="m10 16c0-2.8284 0-4.2426.8787-5.1213s2.2929-.8787 5.1213-.8787 4.2426 0 5.1213.8787.8787 2.2929.8787 5.1213 0 4.2426-.8787 5.1213-2.2929.8787-5.1213.8787-4.2426 0-5.1213-.8787-.8787-2.2929-.8787-5.1213z"/><path d="m4 16.5c0 1.4045 0 2.1067.33706 2.6111.14592.2184.33342.4059.5518.5518.50445.3371 1.20668.3371 2.61114.3371" stroke-linecap="round" stroke-linejoin="round"/><path d="m20 7.5c0-1.40446 0-2.10669-.3371-2.61114-.1459-.21838-.3334-.40588-.5518-.5518-.5044-.33706-1.2066-.33706-2.6111-.33706" stroke-linecap="round" stroke-linejoin="round"/></g></svg>