<svg fill="none" height="24" viewBox="0 0 24 24" width="24" xmlns="http://www.w3.org/2000/svg"><path d="m17.4776 10.0001c.0074-.0001.0149-.0001.0224-.0001 2.4853 0 4.5 2.0147 4.5 4.5s-2.0147 4.5-4.5 4.5h-10.5c-2.76142 0-5-2.2386-5-5 0-2.5997 1.98398-4.73593 4.52042-4.9773m10.95718.9774c.0148-.16474.0224-.33154.0224-.5001 0-3.03757-2.4624-5.5-5.5-5.5-2.87676 0-5.23767 2.20862-5.47958 5.0227m10.95718.9774c-.1023 1.1344-.549 2.1695-1.2348 2.9999m-9.72238-3.9773c.15784-.01502.31781-.0227.47958-.0227 1.12582 0 2.16474.37209 3.0005 1" stroke="#141b34" stroke-linecap="round" stroke-linejoin="round" stroke-width="1.5"/></svg>