<svg fill="none" height="24" viewBox="0 0 24 24" width="24" xmlns="http://www.w3.org/2000/svg"><g stroke="#141b34" stroke-linejoin="round" stroke-width="1.5"><path d="m6.5 2.5c-1.1421.18817-1.96594.53797-2.60876 1.1882-1.39124 1.40728-1.39124 3.67228-1.39124 8.2023 0 4.5299 0 6.7949 1.39124 8.2022 1.39125 1.4073 3.63042 1.4073 8.10876 1.4073 4.4783 0 6.7175 0 8.1088-1.4073 1.3912-1.4073 1.3912-3.6723 1.3912-8.2022 0-4.53002 0-6.79502-1.3912-8.2023-.6429-.65023-1.4667-1.00003-2.6088-1.1882" stroke-linecap="round"/><path d="m9.5 5c.49153-.5057 1.7998-2.5 2.5-2.5m2.5 2.5c-.4915-.5057-1.7998-2.5-2.5-2.5m0 0v8" stroke-linecap="round"/><path d="m21.5 13.5h-4.9257c-.8421 0-1.5037.7036-1.8748 1.4472-.4032.8079-1.2106 1.5528-2.6995 1.5528s-2.29627-.7449-2.69946-1.5528c-.37112-.7436-1.03277-1.4472-1.87488-1.4472h-4.92566"/></g></svg>