<svg fill="none" height="24" viewBox="0 0 24 24" width="24" xmlns="http://www.w3.org/2000/svg"><g stroke="#141b34" stroke-width="1.5"><ellipse cx="10" cy="5" rx="8" ry="3"/><g stroke-linecap="round"><path d="m5 10.8418c.60158.1808 1.27434.3298 2 .4399"/><path d="m5 17.8418c.60158.1808 1.27434.3298 2 .4399"/><path d="m12 15.4996 1.1363 1.4654c.5717-2.1334 2.7651-3.3994 4.8989-2.8277 1.0923.2926 1.9573 1.01 2.4648 1.9267m1.5 4.4344-1.1363-1.4634c-.5718 2.1334-2.7651 3.3994-4.899 2.8277-1.0669-.2858-1.917-.9769-2.4288-1.8632" stroke-linejoin="round"/><path d="m18 5v6.0082m-16-6.0082v14.0191c0 1.532 3.05369 2.7961 7 2.9809" stroke-linejoin="round"/><path d="m2 12c0 1.5418 3.05369 2.814 7 3"/></g></g></svg>