<svg fill="none" height="24" viewBox="0 0 24 24" width="24" xmlns="http://www.w3.org/2000/svg"><g stroke="#141b34" stroke-linecap="round" stroke-linejoin="round" stroke-width="1.5"><path d="m12.5 2h.2727c3.2612 0 4.8918 0 6.0242.79784.3245.22859.6125.49968.8554.80505.8477 1.06578.8477 2.60047.8477 5.66984v2.54547c0 2.9632 0 4.4447-.4689 5.628-.7539 1.9024-2.3482 3.4029-4.3695 4.1124-1.2572.4414-2.8314.4414-5.97978.4414-1.79907 0-2.6986 0-3.41704-.2522-1.15499-.4054-2.06603-1.2629-2.49682-2.3499-.26796-.6762-.26796-1.5228-.26796-3.2161v-4.1818"/><path d="m20.5 12c0 1.8409-1.4924 3.3333-3.3333 3.3333-.6658 0-1.4507-.1166-2.0981.0568-.5751.1541-1.0244.6034-1.1785 1.1785-.1734.6474-.0568 1.4323-.0568 2.0981 0 1.8409-1.4924 3.3333-3.3333 3.3333"/><path d="m4.5 7.5c.49153.5057 1.79977 2.5 2.5 2.5m2.5-2.5c-.49153.5057-1.79977 2.5-2.5 2.5m0 0v-8"/></g></svg>